<svg width="27" height="27" viewBox="0 0 27 27" fill="none" xmlns="http://www.w3.org/2000/svg">
<g clip-path="url(#clip0_52_3306)">
<path d="M20.509 11.4587H22.893V9.87671H18.927V17.1166H22.893V15.5345H20.509V14.2877H22.7172V12.7056H20.509V11.4587Z" fill="#84C1C2"/>
<path d="M14.2681 12.7317V14.3137H15.882C15.6366 15.2376 14.9518 15.5867 14.3027 15.5867C13.1647 15.5867 12.2388 14.6608 12.2388 13.5227C12.2388 12.3847 13.1647 11.4587 14.3027 11.4587C15.1699 11.4587 16.1115 12.2536 16.1115 12.2536L16.9972 10.9427L16.3418 10.4999C15.7384 10.0922 15.0333 9.87671 14.3027 9.87671C12.2923 9.87671 10.6567 11.5123 10.6567 13.5227C10.6567 15.5331 12.2923 17.1687 14.3027 17.1687C16.2196 17.1687 17.5582 15.6694 17.5582 13.5227V12.7317H14.2681Z" fill="#84C1C2"/>
<path d="M25.418 13.5C25.418 16.6834 24.1783 19.6763 21.9273 21.9273C19.6763 24.1783 16.6834 25.418 13.5 25.418C10.3166 25.418 7.32375 24.1783 5.07273 21.9273C2.82171 19.6763 1.58203 16.6834 1.58203 13.5C1.58203 10.3166 2.82171 7.32375 5.07273 5.07273C7.32375 2.82171 10.3166 1.58203 13.5 1.58203C17.0953 1.58203 20.4311 3.17271 22.6831 5.9005H19.7883V7.48253H25.2452V2.02569H23.6631V4.61526C22.6505 3.45874 21.4437 2.4753 20.1012 1.72141C18.0959 0.595266 15.8132 0 13.5 0C9.89402 0 6.50389 1.40426 3.95402 3.95402C1.40426 6.50384 0 9.89402 0 13.5C0 17.106 1.40426 20.4962 3.95402 23.046C6.50389 25.5957 9.89402 27 13.5 27C17.106 27 20.4961 25.5957 23.046 23.046C25.5957 20.4962 27 17.106 27 13.5H25.418Z" fill="#84C1C2"/>
<path d="M5.44776 17.088L5.91884 15.8512H8.27174L8.73849 17.088H10.4294L7.76992 10.0409L6.43833 10.0422L3.75488 17.088H5.44776ZM6.52138 14.2691L7.10067 12.7481L7.67468 14.2691H6.52138Z" fill="#84C1C2"/>
</g>
<defs>
<clipPath id="clip0_52_3306">
<rect width="27" height="27" fill="white"/>
</clipPath>
</defs>
</svg>
