<svg width="18" height="18" viewBox="0 0 18 18" fill="none" xmlns="http://www.w3.org/2000/svg">
<path d="M15.0762 0.801879C14.7978 0.307266 14.2669 0 13.6905 0H9.03333C8.161 0 7.4513 0.709699 7.4513 1.58203V3.69141C7.4513 4.56374 8.161 5.27344 9.03333 5.27344H12.1974C12.4882 5.27344 12.7247 5.51 12.7247 5.80078V9.94335C11.2042 9.52766 9.60135 9.4763 8.06056 9.78971C6.88658 8.66637 5.22387 8.20937 3.56347 8.62453C1.90332 9.03962 0.525517 10.3944 0.131169 12.0806C-0.207948 13.5311 0.122661 15.0251 1.03834 16.1796C1.95588 17.3365 3.31949 18 4.77942 18C11.6635 18 16.4289 15.3842 17.7067 14.7451C17.8853 14.6558 17.9982 14.4732 17.9982 14.2734V11.9858C17.9982 8.06541 16.9877 4.19808 15.0762 0.801879ZM16.9435 13.9485C15.2303 14.8114 10.8933 16.9453 4.77942 16.9453C3.64338 16.9453 2.581 16.4273 1.86462 15.5241C1.15024 14.6234 0.892724 13.4558 1.15815 12.3207C1.45635 11.0453 2.5258 9.97109 3.81927 9.64765C4.88127 9.38208 5.94598 9.56369 6.80572 10.1312C6.39454 10.2724 5.99108 10.4413 5.59828 10.6376C5.33777 10.7679 5.2322 11.0847 5.36245 11.3452C5.49267 11.6056 5.80943 11.7113 6.06994 11.581C8.57493 10.3285 11.5659 10.3285 14.0709 11.581C14.3319 11.7115 14.6484 11.6052 14.7784 11.3452C14.9087 11.0847 14.8031 10.7679 14.5426 10.6376C14.2923 10.5125 14.0376 10.3988 13.7794 10.296V5.80078C13.7794 4.92845 13.0697 4.21875 12.1974 4.21875H11.67V2.63672C11.67 2.34548 11.4339 2.10938 11.1427 2.10938H10.088C9.79678 2.10938 9.56067 2.34548 9.56067 2.63672C9.56067 2.92795 9.79678 3.16406 10.088 3.16406H10.6154V4.21875H9.03333C8.74255 4.21875 8.50599 3.98218 8.50599 3.69141V1.58203C8.50599 1.29125 8.74255 1.05469 9.03333 1.05469H13.6906C13.8865 1.05469 14.0653 1.15604 14.1571 1.31917C15.98 4.5578 16.9435 8.24621 16.9435 11.9858V13.9485H16.9435Z" fill="#84C1C2"/>
</svg>
