<svg width="18" height="18" viewBox="0 0 18 18" fill="none" xmlns="http://www.w3.org/2000/svg">
<path d="M17.985 6.73567C17.6388 5.0829 17.0592 3.58869 16.3087 2.41461C15.9331 1.82641 14.1877 1.34667 13.9529 1.32793C13.7171 1.30818 13.5132 1.52094 13.2483 2.0595C13.0696 2.42273 12.9118 2.85157 12.8465 3.15212C12.7912 3.407 12.9325 3.66684 13.175 3.75653C13.6468 3.93125 14.2868 3.83264 14.5405 3.78212L14.7531 3.89817C15.1929 4.1386 15.493 4.5788 15.556 5.07573L15.6155 5.54331C14.7425 5.06258 13.7054 5.05921 12.6627 5.5412C12.6227 5.55976 12.579 5.56187 12.5396 5.54718C12.1454 5.39952 11.741 5.36992 11.3499 5.34134C10.948 5.31194 10.5658 5.284 10.2129 5.13321V4.57774C10.533 4.39683 10.7583 4.06741 10.7949 3.67479L10.9348 2.1746C10.9767 1.72397 10.826 1.27369 10.5213 0.939175C10.2165 0.604628 9.7821 0.412781 9.32957 0.412781H8.67039C8.57462 0.412781 8.47857 0.421253 8.38499 0.437988C8.24162 0.463582 8.14617 0.600515 8.17177 0.743882C8.19736 0.887214 8.33426 0.982699 8.47769 0.957105C8.54076 0.945855 8.60559 0.94016 8.67039 0.94016H9.32957C9.63855 0.94016 9.92332 1.06595 10.1314 1.29432C10.3395 1.52273 10.4384 1.81801 10.4097 2.12566L10.2698 3.62585C10.2388 3.95885 9.96196 4.20023 9.63943 4.20023H8.36048C8.03771 4.20023 7.7611 3.95868 7.7301 3.62585L7.59025 2.12566C7.57101 1.91937 7.61043 1.7137 7.70422 1.53096C7.77074 1.40141 7.71962 1.24247 7.59003 1.17595C7.46048 1.10947 7.30154 1.16055 7.23506 1.29014C7.09535 1.56235 7.03657 1.86821 7.06515 2.1746L7.205 3.67479C7.2416 4.06741 7.46688 4.39683 7.78705 4.57774V5.13321C7.43412 5.284 7.0519 5.31194 6.64999 5.34134C6.25888 5.36992 5.85448 5.39948 5.46044 5.54714C5.421 5.56191 5.37726 5.55976 5.33687 5.54106C4.29449 5.05917 3.25752 5.06258 2.38445 5.54327L2.44397 5.07555C2.5642 4.12686 3.39895 3.83261 3.45939 3.78209C3.71314 3.83264 4.35316 3.93122 4.82478 3.75653C5.06736 3.66684 5.20869 3.40704 5.15343 3.15194C5.0881 2.85153 4.93039 2.42273 4.75166 2.05946C4.48669 1.52091 4.28278 1.3087 4.0472 1.32786C3.81225 1.34664 2.06674 1.82641 1.69127 2.41447C0.940757 3.58873 0.361101 5.08297 0.0150228 6.73535C-0.0362351 6.9787 0.0457845 7.23327 0.228843 7.39956C0.467484 7.61665 0.900925 7.93154 1.61073 8.19891C2.49843 8.53324 3.49957 8.67186 4.45561 8.69876C4.68824 9.64211 5.06705 10.4307 5.61028 11.1041C5.66351 11.1701 5.69279 11.2554 5.69279 11.3443C5.69279 11.5503 5.6929 13.7377 5.6929 13.9807L5.34134 17.2958C5.32597 17.4406 5.43091 17.5704 5.57572 17.5858C5.72043 17.6012 5.8504 17.4962 5.86573 17.3514C6.16072 14.5671 6.25248 13.8186 6.22024 13.7574H11.7797C11.7804 14.1293 11.7237 13.4742 12.1342 17.3514C12.1486 17.4868 12.263 17.5873 12.3961 17.5873C12.5536 17.5873 12.6751 17.451 12.6586 17.2958L12.3071 13.9807C12.3071 13.7378 12.3072 11.5503 12.3072 11.3443C12.3072 11.2554 12.3365 11.1701 12.3897 11.1041C12.9329 10.4308 13.3117 9.64221 13.5443 8.69876C13.9898 8.68624 14.4399 8.65 14.8838 8.58176C15.0277 8.55961 15.1264 8.425 15.1043 8.28107C15.0822 8.13714 14.9474 8.03835 14.8036 8.06053C14.1248 8.16487 13.4059 8.19254 12.7058 8.16857C12.56 8.16196 12.4382 8.27748 12.4332 8.42303C12.4282 8.56857 12.5422 8.69057 12.6877 8.69556C12.7923 8.69918 12.8958 8.70118 12.9986 8.70248C12.7829 9.51196 12.448 10.192 11.9793 10.773C11.8507 10.9324 11.7798 11.1353 11.7798 11.3442V13.23H6.22014V11.3442C6.22014 11.1353 6.1493 10.9324 6.02073 10.773C5.55196 10.1919 5.21709 9.51192 5.0013 8.70248C5.1041 8.70118 5.20753 8.69914 5.31226 8.69556C5.45781 8.69057 5.57171 8.56857 5.56672 8.42299C5.56173 8.27748 5.43949 8.16252 5.29416 8.16857C3.78834 8.21993 1.67795 8.00495 0.583534 7.00936C0.538324 6.9683 0.518214 6.90494 0.531116 6.84374C0.864292 5.25292 1.41913 3.81953 2.13568 2.69839C2.33882 2.38023 3.64568 1.93923 4.02241 1.86396C4.18248 2.04424 4.52923 2.76473 4.63768 3.26346C4.28398 3.39199 3.68305 3.29545 3.4808 3.24722C3.41723 3.23182 3.35023 3.24075 3.29285 3.27214C3.20443 3.3458 2.08242 3.73392 1.92084 5.00911L1.82487 5.76328C1.8056 5.91484 1.87728 6.06418 2.00743 6.14378C2.13832 6.22376 2.30482 6.2194 2.43166 6.1327C3.19368 5.61207 4.14683 5.57186 5.11528 6.01953C5.28438 6.09793 5.47261 6.1056 5.64537 6.04094C5.96856 5.91987 6.31826 5.89427 6.68849 5.86724C7.17878 5.83138 7.6858 5.79432 8.17563 5.53093C8.26113 5.48495 8.31443 5.39576 8.31443 5.29869V4.72645C8.35774 4.72814 9.64625 4.728 9.68552 4.72645V5.29869C9.68552 5.39576 9.73886 5.48495 9.82432 5.53093C10.3142 5.79432 10.8211 5.83141 11.3115 5.86724C11.6817 5.89431 12.0314 5.91987 12.3547 6.04098C12.5273 6.10556 12.7155 6.09797 12.8844 6.01968C13.8531 5.57193 14.8062 5.612 15.5683 6.1327C15.6952 6.2194 15.8617 6.22379 15.9926 6.14374C16.1227 6.06411 16.1944 5.91477 16.1751 5.76325L16.0791 5.00925C15.9172 3.73241 14.7978 3.34773 14.707 3.27214C14.6498 3.24085 14.5827 3.23207 14.5193 3.24715C14.3168 3.29542 13.7157 3.39199 13.3619 3.26336C13.4704 2.76537 13.8174 2.04431 13.9775 1.86396C14.3541 1.93916 15.6611 2.3802 15.8643 2.6985C16.5808 3.81942 17.1356 5.25285 17.4688 6.84405C17.4817 6.90494 17.4616 6.9683 17.4161 7.00953C17.2188 7.18908 16.7654 7.52995 15.9455 7.79535C15.807 7.84017 15.731 7.98888 15.7759 8.1274C15.812 8.23898 15.9154 8.30993 16.0267 8.30993C16.1691 8.30993 17.163 7.95295 17.7709 7.39973C17.9542 7.2333 18.0362 6.97874 17.985 6.73567Z" fill="#84C1C2"/>
<path d="M9.26368 7.27949C9.26368 6.99044 9.49884 6.75531 9.78786 6.75531C9.93351 6.75531 10.0515 6.63729 10.0515 6.49164C10.0515 6.34599 9.93351 6.22797 9.78786 6.22797C9.47444 6.22797 9.19281 6.36595 9.00001 6.58417C8.80718 6.36595 8.52558 6.22797 8.21216 6.22797C8.06654 6.22797 7.94849 6.34599 7.94849 6.49164C7.94849 6.63729 8.06654 6.75531 8.21216 6.75531C8.50118 6.75531 8.73634 6.99047 8.73634 7.27949V7.99664C8.73634 8.14229 8.85439 8.26031 9.00001 8.26031C9.14566 8.26031 9.26368 8.14229 9.26368 7.99664V7.27949Z" fill="#84C1C2"/>
<path d="M9 10.5731C8.85438 10.5731 8.73633 10.6911 8.73633 10.8368V12.2092C8.73633 12.3548 8.85438 12.4729 9 12.4729C9.14565 12.4729 9.26367 12.3548 9.26367 12.2092V10.8368C9.26367 10.6911 9.14562 10.5731 9 10.5731Z" fill="#84C1C2"/>
<path d="M7.96379 8.9173C7.81817 8.9173 7.70012 9.03532 7.70012 9.18097C7.70012 9.69193 7.37503 10.1448 6.89121 10.3079C6.75322 10.3544 6.67904 10.5039 6.72555 10.642C6.77206 10.78 6.92172 10.8541 7.05964 10.8076C7.75816 10.5722 8.2275 9.91851 8.2275 9.18097C8.22746 9.03532 8.10941 8.9173 7.96379 8.9173Z" fill="#84C1C2"/>
<path d="M10.9403 10.8076C11.0791 10.8543 11.2281 10.7792 11.2744 10.642C11.3208 10.5039 11.2467 10.3544 11.1087 10.3079C10.6249 10.1448 10.2998 9.69193 10.2998 9.18097C10.2998 9.03532 10.1818 8.9173 10.0361 8.9173C9.89048 8.9173 9.77246 9.03532 9.77246 9.18097C9.77243 9.91851 10.2418 10.5722 10.9403 10.8076Z" fill="#84C1C2"/>
<path d="M9.64825 16.5193C9.64776 16.5144 9.64716 16.5095 9.64639 16.5047C9.59636 16.184 9.32453 15.9513 8.99997 15.9513C8.67541 15.9513 8.40354 16.184 8.35355 16.5047C8.35281 16.5096 8.35218 16.5144 8.35169 16.5193L8.27438 17.2975C8.26 17.4424 8.36579 17.5715 8.5107 17.5859C8.6554 17.6002 8.78474 17.4945 8.79916 17.3496L8.87552 16.5807C8.88729 16.5212 8.9388 16.4786 8.99997 16.4786C9.06111 16.4786 9.11261 16.5212 9.12439 16.5807L9.20082 17.3496C9.21432 17.4857 9.329 17.5873 9.46287 17.5873C9.61956 17.5873 9.74096 17.4522 9.72556 17.2975L9.64825 16.5193Z" fill="#84C1C2"/>
</svg>
