<svg width="16" height="16" viewBox="0 0 16 16" fill="none" xmlns="http://www.w3.org/2000/svg">
<g clip-path="url(#clip0_39_1252)">
<path d="M0.468054 12.2189H12.7186C12.8285 12.2189 12.9347 12.1805 13.0189 12.1104C13.1366 12.0119 15.8206 9.70288 15.9843 4.7186H2.82747C2.66443 9.24299 0.19251 11.3696 0.166821 11.3908C0.0162208 11.5181 -0.039188 11.7259 0.0285651 11.9109C0.0958494 12.0953 0.271201 12.2189 0.468054 12.2189Z" fill="#E4774F"/>
<path d="M15.5312 1.90596H13.1874V1.43719C13.1874 1.17467 12.9811 0.968414 12.7186 0.968414C12.4561 0.968414 12.2498 1.17467 12.2498 1.43719V1.90596H9.87471V1.43719C9.87471 1.17467 9.66845 0.968414 9.40594 0.968414C9.14342 0.968414 8.93716 1.17467 8.93716 1.43719V1.90596H6.59331V1.43719C6.59331 1.17467 6.38705 0.968414 6.12454 0.968414C5.86203 0.968414 5.65577 1.17467 5.65577 1.43719V1.90596H3.31191C3.0494 1.90596 2.84314 2.11222 2.84314 2.37473V3.78104H16V2.37473C16 2.11222 15.7937 1.90596 15.5312 1.90596Z" fill="#E4774F"/>
<path d="M13.6209 12.8292C13.3663 13.0411 13.0468 13.1565 12.7186 13.1565H2.84314V14.5628C2.84314 14.8219 3.05281 15.0316 3.31191 15.0316H15.5312C15.7903 15.0316 16 14.8219 16 14.5628V9.30801C15.0962 11.5253 13.835 12.6499 13.6209 12.8292Z" fill="#E4774F"/>
</g>
<defs>
<clipPath id="clip0_39_1252">
<rect width="16" height="16" fill="white"/>
</clipPath>
</defs>
</svg>
