<svg width="14" height="17" viewBox="0 0 14 17" fill="none" xmlns="http://www.w3.org/2000/svg">
<path d="M6.04811 1.77097C6.71126 2.41637 7.22769 3.19699 7.56227 4.05975C7.89685 4.92252 8.04174 5.84721 7.98711 6.77097C7.98387 7.05367 8.08208 7.32816 8.2639 7.54466C8.44572 7.76115 8.69912 7.9053 8.97812 7.95097C9.03987 7.96834 9.10405 7.97543 9.16811 7.97197C9.47793 7.97358 9.77584 7.85265 9.99687 7.63555C10.2179 7.41845 10.3442 7.12277 10.3481 6.81297V6.64397C10.3481 6.55997 10.3481 6.36997 10.3691 6.15897C10.3698 6.11779 10.3825 6.0777 10.4056 6.04364C10.4288 6.00958 10.4614 5.98305 10.4995 5.96732C10.5375 5.95158 10.5794 5.94733 10.6198 5.95509C10.6603 5.96284 10.6976 5.98227 10.7271 6.01097C11.8419 7.20767 12.4727 8.77566 12.4971 10.411C12.4732 11.1392 12.3044 11.8554 12.0005 12.5177C11.6966 13.1799 11.2637 13.775 10.7271 14.268C9.64081 15.3385 8.18408 15.9498 6.65912 15.975C5.13624 15.9399 3.68298 15.3301 2.59111 14.268C2.05455 13.775 1.62166 13.1799 1.31775 12.5177C1.01384 11.8554 0.844996 11.1392 0.821106 10.411C0.821106 8.23997 2.14911 6.72297 3.30811 5.41097C4.36144 4.4031 5.10701 3.1169 5.45811 1.70197C5.46165 1.66461 5.47564 1.62899 5.49846 1.5992C5.52128 1.56941 5.55202 1.54664 5.58717 1.5335C5.62233 1.52036 5.66048 1.51737 5.69725 1.52488C5.73402 1.53239 5.76792 1.5501 5.7951 1.57597L6.04811 1.77097ZM4.76311 0.000969567C4.69215 -0.00070354 4.62196 0.015892 4.55927 0.0491645C4.49657 0.0824369 4.44349 0.131267 4.40511 0.190968C4.32111 0.338968 4.44711 0.65497 4.59511 1.05497C4.89511 1.96097 3.98411 3.41597 2.69511 4.86997C1.49511 6.23997 -0.00488281 7.92597 -0.00488281 10.434C0.0619514 12.1612 0.795072 13.7953 2.0407 14.9937C3.28632 16.1921 4.94764 16.8614 6.67612 16.8614C8.40459 16.8614 10.0659 16.1921 11.3115 14.9937C12.5571 13.7953 13.2903 12.1612 13.3571 10.434C13.342 9.3532 13.0928 8.28854 12.6267 7.31333C12.1606 6.33812 11.4886 5.47553 10.6571 4.78497L10.4461 4.61597C10.3525 4.53498 10.2329 4.49027 10.1091 4.48997C10.011 4.48961 9.91493 4.51778 9.83255 4.57105C9.75017 4.62431 9.68505 4.70037 9.64511 4.78997C9.56809 5.41246 9.52603 6.03877 9.51912 6.66597V6.81397C9.51966 6.85837 9.5113 6.90244 9.49455 6.94357C9.47781 6.98469 9.453 7.02206 9.4216 7.05346C9.3902 7.08486 9.35284 7.10967 9.31171 7.12641C9.27058 7.14316 9.22652 7.15151 9.18211 7.15097H9.11911C9.03497 7.13614 8.95876 7.09211 8.90388 7.02663C8.84901 6.96114 8.81899 6.87841 8.81911 6.79297C8.8774 5.75098 8.70984 4.7087 8.32788 3.7375C7.94592 2.76629 7.35859 1.88909 6.60611 1.16597C6.11907 0.605587 5.47824 0.200505 4.76311 0.000969567Z" fill="black"/>
</svg>
