<svg width="19" height="20" viewBox="0 0 19 20" fill="none" xmlns="http://www.w3.org/2000/svg">
<path d="M15.1035 2.42188H13.9531C13.0479 2.42188 12.2832 1.58113 12.2832 0.585938C12.2832 0.262344 12.034 0 11.7266 0H7.27344C6.96602 0 6.7168 0.262344 6.7168 0.585938C6.7168 1.58113 5.95208 2.42188 5.04688 2.42188H3.89648C1.74796 2.42188 0 4.26184 0 6.52344V13.5547C0 13.8783 0.249227 14.1406 0.556641 14.1406H3.37695V19.4141C3.37695 19.7377 3.62618 20 3.93359 20H15.0664C15.3738 20 15.623 19.7377 15.623 19.4141V14.1406H18.4434C18.7508 14.1406 19 13.8783 19 13.5547V6.52344C19 4.26184 17.252 2.42188 15.1035 2.42188ZM14.5098 18.8281H12.888C13.2216 17.7691 13.3965 16.5712 13.3965 15.3125C13.3965 14.6854 13.352 14.0639 13.2643 13.4654C13.2174 13.1455 12.9332 12.9263 12.6293 12.9756C12.3254 13.0249 12.1171 13.3242 12.164 13.644C12.2431 14.1837 12.2832 14.7451 12.2832 15.3125C12.2832 16.5792 12.0789 17.8112 11.7051 18.8281H7.29489C6.92108 17.8111 6.7168 16.5791 6.7168 15.3125C6.7168 14.7451 6.75691 14.1837 6.83599 13.644C6.88286 13.3242 6.67457 13.0249 6.37071 12.9756C6.06697 12.9264 5.78257 13.1455 5.7357 13.4654C5.64801 14.0639 5.60352 14.6854 5.60352 15.3125C5.60352 16.5712 5.77841 17.7691 6.11199 18.8281H4.49023V11.0784C5.15917 11.5405 5.9349 11.7969 6.74448 11.7969H7.2718C8.10747 11.7969 8.89493 11.467 9.49996 10.8657C10.1051 11.467 10.8925 11.7969 11.7282 11.7969H12.2556C13.0651 11.7969 13.8409 11.5405 14.5098 11.0785V18.8281ZM17.8867 12.9688H15.623V9.97988C16.0728 9.35766 16.3998 8.57836 16.5716 7.83355C16.6441 7.5191 16.4608 7.20227 16.1621 7.1259C15.8633 7.04957 15.5623 7.24258 15.4898 7.55703C15.0382 9.51391 13.6884 10.625 12.2556 10.625H11.7282C10.5947 10.625 10.0765 9.76937 9.89362 9.62477C9.67638 9.39609 9.32377 9.39598 9.10642 9.62477C8.92573 9.76773 8.40249 10.625 7.2718 10.625H6.74448C5.31403 10.625 3.96261 9.51715 3.51025 7.55703C3.43766 7.24258 3.13667 7.04961 2.83794 7.12598C2.53921 7.20238 2.35585 7.51922 2.42844 7.83367C2.5997 8.57566 2.92529 9.35496 3.37699 9.97976V12.9688H1.11328V6.52344C1.11328 4.90801 2.36183 3.59375 3.89648 3.59375H5.04688C6.42207 3.59375 7.52723 2.49488 7.77571 1.17188H11.2243C11.4727 2.495 12.578 3.59375 13.9531 3.59375H15.1035C16.6382 3.59375 17.8867 4.90801 17.8867 6.52344V12.9688Z" fill="#84C1C2"/>
<path d="M9.5 12.9688C9.19259 12.9688 8.94336 13.2311 8.94336 13.5547V17.0703C8.94336 17.3939 9.19259 17.6562 9.5 17.6562C9.80741 17.6562 10.0566 17.3939 10.0566 17.0703V13.5547C10.0566 13.2311 9.80741 12.9688 9.5 12.9688Z" fill="#84C1C2"/>
<path d="M12.8398 9.45312C13.1473 9.45312 13.3965 9.19079 13.3965 8.86719C13.3965 8.54358 13.1473 8.28125 12.8398 8.28125C12.5324 8.28125 12.2832 8.54358 12.2832 8.86719C12.2832 9.19079 12.5324 9.45312 12.8398 9.45312Z" fill="#84C1C2"/>
<path d="M6.16016 9.45312C6.46758 9.45312 6.7168 9.19079 6.7168 8.86719C6.7168 8.54358 6.46758 8.28125 6.16016 8.28125C5.85273 8.28125 5.60352 8.54358 5.60352 8.86719C5.60352 9.19079 5.85273 9.45312 6.16016 9.45312Z" fill="#84C1C2"/>
</svg>
