<svg width="23" height="20" viewBox="0 0 23 20" fill="none" xmlns="http://www.w3.org/2000/svg">
<path d="M2.45312 1L20.4531 19" stroke="#64748B" stroke-width="1.5" stroke-linecap="round" stroke-linejoin="round"/>
<path d="M10.0371 8.58691C9.66187 8.96193 9.45093 9.47067 9.45074 10.0012C9.45056 10.5317 9.66113 11.0406 10.0362 11.4159C10.4112 11.7912 10.9199 12.0021 11.4504 12.0023C11.981 12.0025 12.4899 11.7919 12.8651 11.4169" stroke="#64748B" stroke-width="1.5" stroke-linecap="round" stroke-linejoin="round"/>
<path d="M8.81612 3.36506C9.67354 3.11978 10.5613 2.9969 11.4531 3.00006C15.4531 3.00006 18.7861 5.33306 21.4531 10.0001C20.6751 11.3611 19.8411 12.5241 18.9501 13.4881M16.8101 15.3491C15.1791 16.4491 13.3951 17.0001 11.4531 17.0001C7.45312 17.0001 4.12013 14.6671 1.45312 10.0001C2.82212 7.60506 4.36612 5.82506 6.08512 4.65906" stroke="#64748B" stroke-width="1.5" stroke-linecap="round" stroke-linejoin="round"/>
</svg>
