<svg width="12" height="16" viewBox="0 0 12 16" fill="none" xmlns="http://www.w3.org/2000/svg">
<path d="M10.6387 0H1.41135C0.65985 0 0 0.621978 0 1.3582V15.0911C0 15.3375 0.068175 15.5429 0.17805 15.7016C0.30945 15.8913 0.521025 16 0.7479 15.9999C0.9624 15.9999 1.19078 15.9039 1.40167 15.7226L5.52998 12.1962C5.65748 12.0867 5.84063 12.0239 6.03105 12.0239C6.2214 12.0239 6.40417 12.0867 6.53205 12.1965L10.6466 15.7221C10.8582 15.9039 11.0708 16 11.285 16C11.6471 16 12 15.719 12 15.0911V1.3582C12 0.621978 11.3902 0 10.6387 0Z" fill="#E4774F"/>
</svg>
