<svg width="39" height="38" viewBox="0 0 39 38" fill="none" xmlns="http://www.w3.org/2000/svg">
<g clip-path="url(#clip0_27_669)">
<path d="M38.4609 24.6444C37.8336 21.1109 35.4887 18.2738 32.3967 16.9578C33.7689 15.8071 34.6453 14.0647 34.6453 12.1182C34.6453 8.66098 31.8818 5.84821 28.4849 5.84821C25.0879 5.84821 22.3244 8.66069 22.3244 12.1182C22.3244 14.0659 23.2017 15.8089 24.5754 16.9599C24.0628 17.1785 23.5662 17.4394 23.0918 17.7435C21.8965 18.51 20.876 19.5195 20.0895 20.7018C19.289 20.1701 18.4282 19.7277 17.5208 19.3882C19.4711 17.9783 20.7461 15.6602 20.7461 13.0442C20.7461 8.75723 17.3219 5.26953 13.1129 5.26953C8.90388 5.26953 5.47967 8.75723 5.47967 13.0442C5.47967 15.6602 6.75473 17.9783 8.705 19.3882C4.55455 20.941 1.37126 24.6337 0.545573 29.2828C0.393076 30.1424 0.627329 31.0191 1.18774 31.6882C1.74293 32.3507 2.55296 32.7305 3.41024 32.7305H22.8156C23.6728 32.7305 24.4829 32.3507 25.0381 31.6882C25.5988 31.0191 25.8327 30.1424 25.6802 29.2828C25.5785 28.7093 25.4405 28.1507 25.2697 27.6088H35.9955C36.7336 27.6088 37.4311 27.2818 37.9089 26.7118C38.3908 26.1369 38.592 25.3831 38.4609 24.6444ZM24.551 12.1182C24.551 9.88849 26.3157 8.07477 28.4849 8.07477C30.654 8.07477 32.4188 9.88849 32.4188 12.1182C32.4188 14.3477 30.654 16.1614 28.4849 16.1614C26.3157 16.1614 24.551 14.3477 24.551 12.1182ZM7.70623 13.0442C7.70623 9.98503 10.1317 7.49609 13.1129 7.49609C16.0941 7.49609 18.5199 9.98503 18.5199 13.0442C18.5199 16.1034 16.0941 18.5924 13.1129 18.5924C10.1317 18.5924 7.70623 16.1034 7.70623 13.0442ZM23.3316 30.2581C23.2545 30.35 23.0852 30.5039 22.8156 30.5039H3.41024C3.14062 30.5039 2.97131 30.35 2.89419 30.2581C2.81417 30.1624 2.68719 29.9589 2.73793 29.6719C3.64885 24.5423 8.0121 20.8189 13.1129 20.8189C18.2137 20.8189 22.5772 24.5423 23.4879 29.6719C23.5389 29.9589 23.4119 30.1624 23.3316 30.2581ZM36.2025 25.2816C36.1709 25.3193 36.1022 25.3822 35.9958 25.3822H24.3339C23.6752 24.1481 22.8292 23.0409 21.8368 22.0963C23.287 19.7894 25.7655 18.388 28.4849 18.388C32.3115 18.388 35.5847 21.1828 36.2686 25.0338C36.29 25.1552 36.2364 25.2413 36.2025 25.2816Z" fill="white"/>
</g>
<defs>
<clipPath id="clip0_27_669">
<rect width="38" height="38" fill="white" transform="translate(0.5)"/>
</clipPath>
</defs>
</svg>
