<svg width="39" height="38" viewBox="0 0 39 38" fill="none" xmlns="http://www.w3.org/2000/svg">
<g clip-path="url(#clip0_27_665)">
<path d="M35.1602 2.44922H8.66406C6.82247 2.44922 5.32422 3.94747 5.32422 5.78906V7.19922H3.83984C1.99825 7.19922 0.5 8.69747 0.5 10.5391V32.2109C0.5 34.0525 1.99825 35.5508 3.83984 35.5508H30.3359C32.1775 35.5508 33.6758 34.0525 33.6758 32.2109V30.8008H35.1602C37.0017 30.8008 38.5 29.3025 38.5 27.4609V5.78906C38.5 3.94747 37.0017 2.44922 35.1602 2.44922ZM8.66406 4.67578H35.1602C35.774 4.67578 36.2734 5.1752 36.2734 5.78906V16.2541L29.6433 11.5601C29.2232 11.2628 28.6543 11.2919 28.2669 11.6309L19.5 19.3019L15.4831 15.7871C15.0801 15.4346 14.4833 15.4187 14.0621 15.7496L7.55078 20.8657V5.78906C7.55078 5.1752 8.0502 4.67578 8.66406 4.67578ZM31.4492 32.2109C31.4492 32.8248 30.9498 33.3242 30.3359 33.3242H3.83984C3.22598 33.3242 2.72656 32.8248 2.72656 32.2109V10.5391C2.72656 9.9252 3.22598 9.42578 3.83984 9.42578H5.32422V27.4609C5.32422 29.3025 6.82247 30.8008 8.66406 30.8008H31.4492V32.2109ZM35.1602 28.5742H8.66406C8.0502 28.5742 7.55078 28.0748 7.55078 27.4609V23.6974L14.7118 18.0709L18.7669 21.6191C19.1866 21.9863 19.8134 21.9863 20.2331 21.6191L29.0729 13.8844L36.2734 18.9821V27.4609C36.2734 28.0748 35.774 28.5742 35.1602 28.5742Z" fill="#E4774F"/>
<path d="M19.5 14.1758C21.4235 14.1758 22.9883 12.611 22.9883 10.6875C22.9883 8.76405 21.4235 7.19922 19.5 7.19922C17.5765 7.19922 16.0117 8.76405 16.0117 10.6875C16.0117 12.611 17.5765 14.1758 19.5 14.1758ZM19.5 9.42578C20.1957 9.42578 20.7617 9.99177 20.7617 10.6875C20.7617 11.3832 20.1957 11.9492 19.5 11.9492C18.8043 11.9492 18.2383 11.3832 18.2383 10.6875C18.2383 9.99177 18.8043 9.42578 19.5 9.42578Z" fill="#E4774F"/>
</g>
<defs>
<clipPath id="clip0_27_665">
<rect width="38" height="38" fill="white" transform="translate(0.5)"/>
</clipPath>
</defs>
</svg>
