<svg width="18" height="16" viewBox="0 0 18 16" fill="none" xmlns="http://www.w3.org/2000/svg">
<path d="M15.9559 2.08489C15.5358 1.62701 15.0243 1.2623 14.4545 1.01427C13.8848 0.766237 13.2693 0.640406 12.6479 0.644891C11.7042 0.641232 10.7874 0.958608 10.0479 1.54489C9.647 1.85933 9.29338 2.22979 8.99792 2.64489C8.70309 2.2299 8.35015 1.85945 7.94992 1.54489C7.21045 0.958608 6.29359 0.641232 5.34992 0.644891C4.72901 0.640826 4.11414 0.76686 3.54491 1.01488C2.97568 1.26289 2.46471 1.62739 2.04492 2.08489C1.17941 3.05441 0.710958 4.31443 0.732916 5.61389C0.770389 7.11245 1.35355 8.54581 2.37292 9.64489C3.63387 11.0373 5.00498 12.3258 6.47292 13.4979C7.04192 13.9829 7.68592 14.5319 8.35592 15.1179C8.53287 15.2725 8.7599 15.3578 8.99492 15.3578C9.22993 15.3578 9.45696 15.2725 9.63392 15.1179C10.3029 14.5329 10.9489 13.9829 11.5179 13.4979C12.989 12.3262 14.3632 11.0377 15.6269 9.64489C16.6457 8.54663 17.2288 7.11443 17.2669 5.61689C17.2899 4.31654 16.8218 3.05532 15.9559 2.08489V2.08489Z" stroke="black"/>
</svg>
