<svg width="16" height="16" viewBox="0 0 16 16" fill="none" xmlns="http://www.w3.org/2000/svg">
<path d="M14.5625 0H11.75C11.4911 0 11.2812 0.209875 11.2812 0.46875V1.17969H12.5312C12.7901 1.17969 13 1.38956 13 1.64844C13 1.90731 12.7901 2.11719 12.5312 2.11719H11.2812V3.29688H13.1562C13.4151 3.29688 13.625 3.50675 13.625 3.76562C13.625 4.0245 13.4151 4.23438 13.1562 4.23438H11.2812V5.41406H12.5312C12.7901 5.41406 13 5.62394 13 5.88281C13 6.14169 12.7901 6.35156 12.5312 6.35156H11.2812V7.53125H13.1562C13.4151 7.53125 13.625 7.74113 13.625 8C13.625 8.25887 13.4151 8.46875 13.1562 8.46875H11.2812V9.64844H12.5312C12.7901 9.64844 13 9.85831 13 10.1172C13 10.3761 12.7901 10.5859 12.5312 10.5859H11.2812V11.7656H13.1562C13.4151 11.7656 13.625 11.9755 13.625 12.2344C13.625 12.4932 13.4151 12.7031 13.1562 12.7031H11.2812V13.8828H12.5312C12.7901 13.8828 13 14.0927 13 14.3516C13 14.6104 12.7901 14.8203 12.5312 14.8203H11.2812V15.5312C11.2812 15.7901 11.4911 16 11.75 16H14.5625C14.8214 16 15.0312 15.7901 15.0312 15.5312V0.46875C15.0312 0.209875 14.8214 0 14.5625 0Z" fill="#E4774F"/>
<path d="M5.1875 3.4375C4.32456 3.4375 3.625 2.73794 3.625 1.875V1.5625C3.625 0.699562 4.32456 0 5.1875 0C6.05044 0 6.75 0.699562 6.75 1.5625V1.875C6.75 2.73794 6.05044 3.4375 5.1875 3.4375Z" fill="#E4774F"/>
<path d="M7.11672 3.46332C6.65781 4.01972 5.96338 4.37501 5.1875 4.37501C4.41162 4.37501 3.71719 4.01972 3.25828 3.46332C1.96494 3.64201 0.96875 4.75126 0.96875 6.09376V9.60938C0.96875 9.99769 1.28356 10.3125 1.67188 10.3125C2.06019 10.3125 2.375 9.99769 2.375 9.60938V7.34376C2.375 7.08488 2.58487 6.87501 2.84375 6.87501C3.10262 6.87501 3.3125 7.08488 3.3125 7.34376V15.5313C3.3125 15.7901 3.52238 16 3.78125 16H4.71875V11.2633C4.71875 11.0108 4.91272 10.7937 5.16484 10.7818C5.43403 10.7691 5.65625 10.9836 5.65625 11.25V16H6.59375C6.85262 16 7.0625 15.7901 7.0625 15.5313V7.34376C7.0625 7.08488 7.27238 6.87501 7.53125 6.87501C7.79012 6.87501 8 7.08488 8 7.34376V9.60938C8 9.99769 8.31481 10.3125 8.70312 10.3125C9.09144 10.3125 9.40625 9.99769 9.40625 9.60938V6.09376C9.40625 4.75126 8.41006 3.64201 7.11672 3.46332Z" fill="#E4774F"/>
</svg>
