<svg width="25" height="27" viewBox="0 0 25 27" fill="none" xmlns="http://www.w3.org/2000/svg">
<path d="M10.2832 5.27344H10.0052C10.3474 4.74019 10.5469 4.10701 10.5469 3.42773C10.5469 1.53768 9.00919 0 7.11914 0C5.22909 0 3.69141 1.53768 3.69141 3.42773C3.69141 4.10701 3.89085 4.74019 4.23304 5.27344H3.95508C1.77425 5.27344 0 7.04769 0 9.22852V14.6074C0 15.9159 1.06455 16.9805 2.37305 16.9805C2.65027 16.9805 2.91658 16.9327 3.16406 16.8449V24.627C3.16406 25.9355 4.22861 27 5.53711 27C6.14435 27 6.69901 26.7708 7.11914 26.3943C7.53928 26.7708 8.09394 27 8.70117 27C10.0097 27 11.0742 25.9355 11.0742 24.627V16.8449C11.3217 16.9327 11.588 16.9805 11.8652 16.9805C13.1737 16.9805 14.2383 15.9159 14.2383 14.6074V9.22852C14.2383 7.04769 12.464 5.27344 10.2832 5.27344ZM5.27344 3.42773C5.27344 2.41001 6.10142 1.58203 7.11914 1.58203C8.13686 1.58203 8.96484 2.41001 8.96484 3.42773C8.96484 4.44546 8.13686 5.27344 7.11914 5.27344C6.10142 5.27344 5.27344 4.44546 5.27344 3.42773ZM12.6562 14.6074C12.6562 15.0436 12.3014 15.3984 11.8652 15.3984C11.4291 15.3984 11.0742 15.0436 11.0742 14.6074V10.3887C11.0742 9.95182 10.7201 9.59766 10.2832 9.59766C9.84635 9.59766 9.49219 9.95182 9.49219 10.3887V24.627C9.49219 25.0631 9.13734 25.418 8.70117 25.418C8.26501 25.418 7.91016 25.0631 7.91016 24.627V18.2988C7.91016 17.862 7.55599 17.5078 7.11914 17.5078C6.68229 17.5078 6.32812 17.862 6.32812 18.2988V24.627C6.32812 25.0631 5.97328 25.418 5.53711 25.418C5.10094 25.418 4.74609 25.0631 4.74609 24.627V10.3887C4.74609 9.95182 4.39193 9.59766 3.95508 9.59766C3.51823 9.59766 3.16406 9.95182 3.16406 10.3887V14.6074C3.16406 15.0436 2.80921 15.3984 2.37305 15.3984C1.93688 15.3984 1.58203 15.0436 1.58203 14.6074V9.22852C1.58203 7.92002 2.64658 6.85547 3.95508 6.85547H10.2832C11.5917 6.85547 12.6562 7.92002 12.6562 9.22852V14.6074Z" fill="#84C1C2"/>
<path d="M23.9941 0H13.4473C13.0104 0 12.6562 0.354164 12.6562 0.791016C12.6562 1.22787 13.0104 1.58203 13.4473 1.58203H16.875V26.209C16.875 26.6458 17.2292 27 17.666 27H23.9941C24.431 27 24.7852 26.6458 24.7852 26.209V0.791016C24.7852 0.354164 24.431 0 23.9941 0ZM23.2031 25.418H18.457V23.7832H19.248C19.6849 23.7832 20.0391 23.429 20.0391 22.9922C20.0391 22.5553 19.6849 22.2012 19.248 22.2012H18.457V20.6191H20.3027C20.7396 20.6191 21.0938 20.265 21.0938 19.8281C21.0938 19.3913 20.7396 19.0371 20.3027 19.0371H18.457V17.4551H19.248C19.6849 17.4551 20.0391 17.1009 20.0391 16.6641C20.0391 16.2272 19.6849 15.873 19.248 15.873H18.457V14.291H20.3027C20.7396 14.291 21.0938 13.9369 21.0938 13.5C21.0938 13.0631 20.7396 12.709 20.3027 12.709H18.457V11.127H19.248C19.6849 11.127 20.0391 10.7728 20.0391 10.3359C20.0391 9.89909 19.6849 9.54492 19.248 9.54492H18.457V7.96289H20.3027C20.7396 7.96289 21.0938 7.60873 21.0938 7.17188C21.0938 6.73502 20.7396 6.38086 20.3027 6.38086H18.457V4.79883H19.248C19.6849 4.79883 20.0391 4.44466 20.0391 4.00781C20.0391 3.57096 19.6849 3.2168 19.248 3.2168H18.457V1.58203H23.2031V25.418Z" fill="#84C1C2"/>
</svg>
