<svg width="39" height="38" viewBox="0 0 39 38" fill="none" xmlns="http://www.w3.org/2000/svg">
<g clip-path="url(#clip0_27_661)">
<path d="M28.4805 0H10.5195C4.99476 0 0.5 4.49476 0.5 10.0195V27.9805C0.5 33.5052 4.99476 38 10.5195 38H28.4805C34.0052 38 38.5 33.5052 38.5 27.9805V10.0195C38.5 4.49476 34.0052 0 28.4805 0ZM36.2734 27.9805C36.2734 32.2775 32.7775 35.7734 28.4805 35.7734H10.5195C6.22249 35.7734 2.72656 32.2775 2.72656 27.9805V10.0195C2.72656 5.72249 6.22249 2.22656 10.5195 2.22656H28.4805C32.7775 2.22656 36.2734 5.72249 36.2734 10.0195V27.9805Z" fill="white"/>
<path d="M28.4062 17.8867H20.6133V10.0938C20.6133 9.47892 20.1148 8.98047 19.5 8.98047C18.8852 8.98047 18.3867 9.47892 18.3867 10.0938V17.8867H10.5938C9.97892 17.8867 9.48047 18.3852 9.48047 19C9.48047 19.6148 9.97892 20.1133 10.5938 20.1133H18.3867V27.9062C18.3867 28.5211 18.8852 29.0195 19.5 29.0195C20.1148 29.0195 20.6133 28.5211 20.6133 27.9062V20.1133H28.4062C29.0211 20.1133 29.5195 19.6148 29.5195 19C29.5195 18.3852 29.0211 17.8867 28.4062 17.8867Z" fill="white"/>
</g>
<defs>
<clipPath id="clip0_27_661">
<rect width="38" height="38" fill="white" transform="translate(0.5)"/>
</clipPath>
</defs>
</svg>
