<svg width="20" height="19" viewBox="0 0 20 19" fill="none" xmlns="http://www.w3.org/2000/svg">
<path d="M18.0846 6.7021C18.7066 4.71367 18.7246 2.3223 18.2412 0H5.93862L1.72225 9.44946C1.39952 10.1727 1.33272 10.9906 1.53417 11.7525L3.45042 19H9.10014C9.2187 18.205 9.33186 17.223 9.3337 16.5339L11.3011 19H17.2495C16.8727 16.7768 16.2124 14.7073 15.224 13.6266C15.0177 13.377 14.8484 13.1266 14.7207 12.8822C14.5212 12.5003 14.6071 12.0344 14.9346 11.723C16.4543 10.2779 17.5141 8.58859 18.0846 6.7021ZM8.06713 17.8867H4.36432L2.67073 11.4813C2.531 10.9529 2.57733 10.3856 2.8012 9.88397L6.71467 1.11328H15.4619C15.4824 1.83146 15.3914 3.0187 14.952 4.30814C14.5433 5.50707 13.9028 6.62603 13.048 7.63392C11.9745 8.89979 10.5555 9.99645 8.83049 10.8933C7.88108 11.387 7.37229 12.3058 7.53432 13.2341C7.586 13.53 7.6703 13.8391 7.78491 14.1527C8.16792 15.201 8.25315 16.2764 8.06713 17.8867ZM13.6711 13.3772C13.8343 13.6896 14.0467 14.0048 14.3023 14.3141C15.0184 15.1806 15.4425 16.156 15.8288 17.8867H11.8833L9.07796 14.3704C9.02444 14.1747 8.96264 13.9811 8.89194 13.7876C8.79905 13.5333 8.7312 13.2858 8.69038 13.0519C8.611 12.5971 8.88682 12.1331 9.39311 11.8699C11.2676 10.8952 12.8133 9.69442 13.9871 8.30088C14.9323 7.17873 15.6385 5.93145 16.0862 4.5937C16.586 3.10027 16.6503 1.83339 16.6317 1.11328H17.2488C17.5398 3.01885 17.4424 4.7936 16.9582 6.39469C16.4432 8.09793 15.4834 9.62591 14.1055 10.9362C13.4223 11.586 13.2477 12.5669 13.6711 13.3772Z" fill="#84C1C2"/>
</svg>
