<svg width="39" height="38" viewBox="0 0 39 38" fill="none" xmlns="http://www.w3.org/2000/svg">
<path d="M35.3464 23.5273C35.8764 22.9358 36.1992 22.155 36.1992 21.3008C36.1992 19.4594 34.7007 17.9609 32.8594 17.9609H26.3771C27.0191 16.0127 27.293 13.4277 27.293 12.3196V11.207C27.293 8.75187 25.295 6.75391 22.8398 6.75391H21.7266C21.2159 6.75391 20.7706 7.10125 20.6467 7.59703L20.0403 10.0232C19.1905 13.421 16.4927 17.1698 13.7005 17.8511C13.2114 16.6131 12.0039 15.7344 10.5938 15.7344H3.91406C3.29953 15.7344 2.80078 16.2331 2.80078 16.8477V36.8867C2.80078 37.5012 3.29953 38 3.91406 38H10.5938C11.9215 38 13.0704 37.2214 13.6085 36.0963L17.4338 37.3714C18.6843 37.7885 19.9876 38 21.3065 38H30.6328C32.4742 38 33.9727 36.5015 33.9727 34.6602C33.9727 34.226 33.8895 33.8104 33.7381 33.4296C35.1542 33.0429 36.1992 31.7448 36.1992 30.207C36.1992 29.3528 35.8764 28.572 35.3464 27.9805C35.8764 27.3889 36.1992 26.6082 36.1992 25.7539C36.1992 24.8996 35.8764 24.1189 35.3464 23.5273ZM11.707 34.6602C11.707 35.2739 11.2075 35.7734 10.5938 35.7734H5.02734V17.9609H10.5938C11.2075 17.9609 11.707 18.4604 11.707 19.0742V34.6602ZM30.6328 24.6406H32.8594C33.4732 24.6406 33.9727 25.1401 33.9727 25.7539C33.9727 26.3677 33.4732 26.8672 32.8594 26.8672H30.6328C30.0183 26.8672 29.5195 27.3659 29.5195 27.9805C29.5195 28.595 30.0183 29.0938 30.6328 29.0938H32.8594C33.4732 29.0938 33.9727 29.5932 33.9727 30.207C33.9727 30.8208 33.4732 31.3203 32.8594 31.3203H30.6328C30.0183 31.3203 29.5195 31.8191 29.5195 32.4336C29.5195 33.0481 30.0183 33.5469 30.6328 33.5469C31.2466 33.5469 31.7461 34.0464 31.7461 34.6602C31.7461 35.2739 31.2466 35.7734 30.6328 35.7734H21.3065C20.2273 35.7734 19.1608 35.6005 18.1373 35.2591L13.9336 33.8579V20.0821C15.68 19.7504 17.3892 18.6445 18.9322 16.8343C20.4389 15.0664 21.6605 12.7226 22.2001 10.5636L22.5957 8.98047H22.8398C24.0674 8.98047 25.0664 9.97945 25.0664 11.207V12.3196C25.0664 13.8143 24.5988 16.6814 24.0006 17.9609H21.7266C21.112 17.9609 20.6133 18.4597 20.6133 19.0742C20.6133 19.6888 21.112 20.1875 21.7266 20.1875H32.8594C33.4732 20.1875 33.9727 20.687 33.9727 21.3008C33.9727 21.9146 33.4732 22.4141 32.8594 22.4141H30.6328C30.0183 22.4141 29.5195 22.9128 29.5195 23.5273C29.5195 24.1419 30.0183 24.6406 30.6328 24.6406Z" fill="#E4774F"/>
<path d="M8.36719 33.5469C8.98204 33.5469 9.48047 33.0484 9.48047 32.4336C9.48047 31.8187 8.98204 31.3203 8.36719 31.3203C7.75234 31.3203 7.25391 31.8187 7.25391 32.4336C7.25391 33.0484 7.75234 33.5469 8.36719 33.5469Z" fill="#E4774F"/>
<path d="M23.9531 0C23.3383 0 22.8398 0.498453 22.8398 1.11328V3.41406C22.8398 4.02889 23.3383 4.52734 23.9531 4.52734C24.568 4.52734 25.0664 4.02889 25.0664 3.41406V1.11328C25.0664 0.498453 24.568 0 23.9531 0Z" fill="#E4774F"/>
<path d="M19.2298 4.90939L17.6554 3.33499C17.2207 2.90022 16.5157 2.90022 16.081 3.33499C15.6462 3.76976 15.6462 4.47462 16.081 4.90939L17.6554 6.4838C18.0901 6.9185 18.7951 6.91857 19.2298 6.4838C19.6645 6.04902 19.6645 5.34417 19.2298 4.90939Z" fill="#E4774F"/>
<path d="M31.8252 3.33499C31.3905 2.90022 30.6856 2.90022 30.2508 3.33499L28.6764 4.90932C28.2416 5.34409 28.2416 6.04895 28.6764 6.48372C29.1111 6.91849 29.816 6.91857 30.2508 6.4838L31.8252 4.90939C32.26 4.47462 32.26 3.76976 31.8252 3.33499Z" fill="#E4774F"/>
</svg>
