<svg width="18" height="18" viewBox="0 0 18 18" fill="none" xmlns="http://www.w3.org/2000/svg">
<path d="M17.7085 10.6728L14.6206 9.14646C14.0812 8.87678 13.7461 8.33456 13.7461 7.73149V4.75204C14.5984 3.62429 15.2213 2.21991 15.5643 0.639141C15.6355 0.310992 15.3852 0 15.0489 0H2.95112C2.61531 0 2.36447 0.310465 2.43577 0.639141C2.77868 2.21991 3.40168 3.62433 4.25391 4.75204V7.73153C4.25391 8.33463 3.9188 8.87685 3.37939 9.14653L0.291516 10.6728C0.112852 10.7622 0 10.9448 0 11.1445V17.4727C0 17.7639 0.236109 18 0.527344 18H17.4727C17.7639 18 18 17.7639 18 17.4727V11.1445C18 10.9448 17.8871 10.7622 17.7085 10.6728ZM14.3745 1.05469C13.6249 3.71918 11.7101 6.32812 9 6.32812C6.29061 6.32812 4.37541 3.72027 3.62549 1.05469H14.3745ZM16.9453 16.9453H1.05469V11.4705L3.85105 10.0899C3.99431 10.0182 4.12882 9.93498 4.25391 9.84171V11.1445C4.25391 11.4358 4.49002 11.6719 4.78125 11.6719C5.07248 11.6719 5.30859 11.4358 5.30859 11.1445C5.30859 11.1213 5.30859 5.91504 5.30859 5.89954C6.40659 6.87224 7.67109 7.38281 9 7.38281C10.3289 7.38281 11.5934 6.87224 12.6914 5.89957V11.1445C12.6914 11.4358 12.9275 11.6719 13.2188 11.6719C13.51 11.6719 13.7461 11.4358 13.7461 11.1445V9.84164C13.8712 9.93491 14.0057 10.0182 14.149 10.0898L16.9453 11.4705V16.9453Z" fill="#84C1C2"/>
<path d="M9.52734 15.3633C9.52734 15.6545 9.76345 15.8906 10.0547 15.8906C10.3459 15.8906 10.582 15.6545 10.582 15.3633C10.582 15.0725 10.8186 14.8359 11.1094 14.8359H15.3281C15.6194 14.8359 15.8555 14.5998 15.8555 14.3086C15.8555 14.0174 15.6194 13.7812 15.3281 13.7812H11.1094C10.237 13.7812 9.52734 14.4909 9.52734 15.3633Z" fill="#84C1C2"/>
<path d="M6.89062 13.7812H2.67188C2.38064 13.7812 2.14453 14.0174 2.14453 14.3086C2.14453 14.5998 2.38064 14.8359 2.67188 14.8359H6.89062C7.1814 14.8359 7.41797 15.0725 7.41797 15.3633C7.41797 15.6545 7.65408 15.8906 7.94531 15.8906C8.23655 15.8906 8.47266 15.6545 8.47266 15.3633C8.47266 14.4909 7.76296 13.7812 6.89062 13.7812Z" fill="#84C1C2"/>
<path d="M9.81884 12.6709C10.0799 12.8015 10.3964 12.695 10.5263 12.4351C10.8442 11.7994 11.5056 10.4765 11.6202 8.53897C11.6374 8.24823 11.4157 7.99862 11.1249 7.98143C10.8337 7.96399 10.5845 8.186 10.5674 8.47671C10.4656 10.1983 9.89144 11.3465 9.58302 11.9634C9.45276 12.2239 9.55834 12.5406 9.81884 12.6709Z" fill="#84C1C2"/>
<path d="M7.47361 12.435C7.6039 12.6956 7.92069 12.8011 8.18113 12.6709C8.44163 12.5406 8.54721 12.2238 8.41695 11.9633C8.10849 11.3465 7.53436 10.1982 7.43258 8.47665C7.41542 8.1859 7.16588 7.96396 6.87504 7.98137C6.58429 7.99856 6.36253 8.24817 6.37972 8.53891C6.49426 10.4764 7.15572 11.7993 7.47361 12.435Z" fill="#84C1C2"/>
</svg>
