<svg width="16" height="16" viewBox="0 0 16 16" fill="none" xmlns="http://www.w3.org/2000/svg">
<path d="M15.102 10.1571C14.9649 10.0493 14.7955 9.99063 14.621 9.99063C14.4465 9.99063 14.2771 10.0493 14.14 10.1571C13.0125 11.0774 11.5812 11.5417 10.1282 11.4586C8.67524 11.3755 7.30617 10.7509 6.291 9.70814C5.24102 8.67806 4.61936 7.28906 4.55073 5.81978C4.48211 4.35049 4.9716 2.90959 5.921 1.78614C6.02887 1.66319 6.08835 1.5052 6.08835 1.34164C6.08835 1.17807 6.02887 1.02009 5.921 0.897138C5.8233 0.76061 5.68021 0.663302 5.51732 0.622627C5.35444 0.581953 5.18241 0.600567 5.032 0.675138C4.01655 1.16164 3.11958 1.864 2.40375 2.73314C1.68793 3.60228 1.17051 4.61724 0.887656 5.70711C0.604801 6.79697 0.563331 7.93546 0.766142 9.04301C0.968953 10.1506 1.41116 11.2005 2.06185 12.1194C2.71254 13.0383 3.55603 13.8041 4.53339 14.3632C5.51075 14.9223 6.5984 15.2612 7.72035 15.3563C8.8423 15.4514 9.97148 15.3004 11.029 14.9138C12.0865 14.5272 13.0469 13.9144 13.843 13.1181C14.4599 12.4958 14.9613 11.7688 15.324 10.9711C15.4016 10.8336 15.4218 10.6709 15.3802 10.5185C15.3387 10.3661 15.2387 10.2363 15.102 10.1571ZM3.922 12.0821C2.86417 11.039 2.21531 9.65121 2.09312 8.17059C1.97092 6.68997 2.3835 5.2146 3.256 4.01214C2.99161 5.21256 3.03642 6.46047 3.38624 7.63884C3.73606 8.81721 4.37942 9.88743 5.256 10.7491C6.11771 11.6257 7.18793 12.2691 8.36629 12.6189C9.54466 12.9687 10.7926 13.0135 11.993 12.7491C10.7966 13.6377 9.31763 14.0602 7.83243 13.9376C6.34724 13.815 4.9575 13.1558 3.92299 12.0831L3.922 12.0821Z" fill="black"/>
</svg>
