<svg width="16" height="16" viewBox="0 0 16 16" fill="none" xmlns="http://www.w3.org/2000/svg">
<path d="M13.7859 11.136C12.8193 10.3093 11.8384 9.80855 10.8837 10.634L10.3136 11.1329C9.89654 11.495 9.12104 13.1871 6.12272 9.73799C3.12502 6.29323 4.90891 5.75688 5.32662 5.39785L5.89981 4.89834C6.84951 4.07102 6.49111 3.02954 5.80616 1.95746L5.39281 1.3081C4.70473 0.238516 3.95546 -0.463923 3.00327 0.362146L2.48877 0.811707C2.06793 1.11828 0.89158 2.11481 0.606234 4.00796C0.262819 6.27949 1.34614 8.8807 3.82809 11.7348C6.30692 14.5901 8.73392 16.0244 11.0329 15.9994C12.9436 15.9788 14.0974 14.9535 14.4583 14.5808L14.9747 14.1306C15.9244 13.3051 15.3344 12.4647 14.3672 11.6361L13.7859 11.136Z" fill="#E4774F"/>
</svg>
