<svg width="35" height="35" viewBox="0 0 35 35" fill="none" xmlns="http://www.w3.org/2000/svg">
<rect width="35" height="35" fill="white"/>
<g clip-path="url(#clip0_159_6282)">
<path d="M34.5 17.5C34.5 26.8888 26.8888 34.5 17.5 34.5C8.11116 34.5 0.5 26.8888 0.5 17.5C0.5 8.11116 8.11116 0.5 17.5 0.5C26.8888 0.5 34.5 8.11116 34.5 17.5Z" fill="#2E4D55" stroke="#2E4D55"/>
<path d="M28.2274 14.0145C28.1067 13.6433 27.7859 13.3727 27.3997 13.3166L21.1946 12.415L18.4196 6.79226C18.2469 6.44226 17.8904 6.2207 17.5001 6.2207C17.1099 6.2207 16.7534 6.44226 16.5806 6.79232L13.8057 12.415L7.60061 13.3167C7.21438 13.3728 6.89344 13.6434 6.77285 14.0146C6.65226 14.3858 6.75289 14.7932 7.03234 15.0657L11.5224 19.4423L10.4624 25.6223C10.3964 26.0069 10.5546 26.3957 10.8703 26.6252C11.1861 26.8546 11.6047 26.8849 11.9502 26.7032L17.5001 23.7854L23.0501 26.7032C23.3982 26.8862 23.8166 26.8529 24.13 26.6252C24.4457 26.3957 24.6039 26.007 24.5379 25.6223L23.478 19.4423L27.9679 15.0657C28.2474 14.7932 28.348 14.3857 28.2274 14.0145Z" fill="white"/>
</g>
<defs>
<clipPath id="clip0_159_6282">
<rect width="35" height="35" fill="white"/>
</clipPath>
</defs>
</svg>
