<svg width="39" height="38" viewBox="0 0 39 38" fill="none" xmlns="http://www.w3.org/2000/svg">
<path d="M29.8033 25.5605C27.9826 25.5605 26.3423 26.3467 25.2038 27.5974L14.9636 21.2552C15.237 20.5554 15.3887 19.7952 15.3887 19C15.3887 18.2044 15.237 17.4443 14.9636 16.7447L25.2038 10.4022C26.3423 11.6529 27.9826 12.4394 29.8033 12.4394C33.233 12.4394 36.0232 9.64929 36.0232 6.21958C36.0232 2.78987 33.233 0 29.8033 0C26.3736 0 23.5834 2.79016 23.5834 6.21987C23.5834 7.01511 23.7353 7.77527 24.0085 8.47513L13.7686 14.8173C12.6301 13.5666 10.9898 12.7801 9.16908 12.7801C5.73937 12.7801 2.94922 15.5705 2.94922 19C2.94922 22.4297 5.73937 25.2198 9.16908 25.2198C10.9898 25.2198 12.6301 24.4336 13.7686 23.1826L24.0085 29.5248C23.7353 30.2247 23.5834 30.9848 23.5834 31.7803C23.5834 35.2098 26.3736 37.9999 29.8033 37.9999C33.233 37.9999 36.0232 35.2098 36.0232 31.7803C36.0232 28.3506 33.233 25.5605 29.8033 25.5605ZM25.8514 6.21987C25.8514 4.04086 27.6243 2.26802 29.8033 2.26802C31.9823 2.26802 33.7551 4.04086 33.7551 6.21987C33.7551 8.39888 31.9823 10.1717 29.8033 10.1717C27.6243 10.1717 25.8514 8.39888 25.8514 6.21987ZM9.16908 22.9518C6.98978 22.9518 5.21694 21.179 5.21694 19C5.21694 16.821 6.98978 15.0481 9.16908 15.0481C11.3481 15.0481 13.1206 16.821 13.1206 19C13.1206 21.179 11.3481 22.9518 9.16908 22.9518ZM25.8514 31.7801C25.8514 29.601 27.6243 27.8282 29.8033 27.8282C31.9823 27.8282 33.7551 29.601 33.7551 31.7801C33.7551 33.9591 31.9823 35.7319 29.8033 35.7319C27.6243 35.7319 25.8514 33.9591 25.8514 31.7801Z" fill="white"/>
</svg>
