<svg width="22" height="20" viewBox="0 0 22 20" fill="none" xmlns="http://www.w3.org/2000/svg">
<path fill-rule="evenodd" clip-rule="evenodd" d="M2.4992 9.67396C2.46937 9.757 2.46426 9.84691 2.4845 9.9328C2.50474 10.0187 2.54946 10.0969 2.61323 10.1578C2.67701 10.2188 2.7571 10.26 2.84381 10.2764C2.93052 10.2927 3.02011 10.2836 3.10173 10.2501C3.39566 10.4938 3.74076 10.7741 4.18234 11.0831C4.16143 11.1705 4.16687 11.2622 4.19799 11.3465C4.2291 11.4308 4.2845 11.5041 4.35718 11.5569C4.42987 11.6098 4.51659 11.64 4.6064 11.6437C4.69622 11.6474 4.78511 11.6243 4.86187 11.5776C5.17364 11.7957 5.53756 12.0504 5.93082 12.3445C5.91586 12.4298 5.92555 12.5176 5.95873 12.5976C5.99192 12.6775 6.04723 12.7464 6.11817 12.796C6.18911 12.8457 6.27273 12.874 6.35923 12.8778C6.44573 12.8816 6.53152 12.8606 6.60651 12.8173C6.94378 13.0533 7.30388 13.2863 7.6933 13.5588C7.67306 13.6452 7.67919 13.7357 7.71088 13.8187C7.74257 13.9016 7.79837 13.9731 7.8711 14.024C7.94382 14.0749 8.03012 14.1028 8.11887 14.1041C8.20762 14.1055 8.29474 14.0803 8.369 14.0316L9.45962 14.7948C9.44288 14.8805 9.45136 14.9692 9.48404 15.0501C9.51672 15.1311 9.57219 15.2008 9.64373 15.2509C9.71526 15.301 9.79979 15.3292 9.88705 15.3321C9.97431 15.3351 10.0605 15.3127 10.1353 15.2676C10.51 15.5362 10.9028 15.7787 11.3108 15.9934C11.3071 16.0838 11.3305 16.1731 11.3781 16.25C11.4257 16.3268 11.4953 16.3877 11.5778 16.4246C11.6604 16.4615 11.752 16.4729 11.8411 16.4571C11.9301 16.4414 12.0124 16.3994 12.0773 16.3364C12.5071 16.5098 12.9492 16.6507 13.4001 16.7579C13.4145 16.8483 13.4561 16.9322 13.5193 16.9985C13.5825 17.0648 13.6644 17.1103 13.754 17.129C13.8436 17.1478 13.9369 17.1389 14.0213 17.1035C14.1058 17.0681 14.1775 17.0078 14.227 16.9308C14.6736 17.0112 15.1243 17.0672 15.5771 17.0986C15.6062 17.1822 15.6593 17.2555 15.7297 17.3092C15.8002 17.363 15.8848 17.3948 15.9732 17.4008C16.0616 17.4069 16.1498 17.3868 16.2269 17.3431C16.304 17.2994 16.3665 17.2341 16.4068 17.1552C16.8637 17.1659 17.3244 17.1749 17.7736 17.1646C17.8099 17.2439 17.869 17.3106 17.9432 17.3563C18.0175 17.4021 18.1037 17.4247 18.1908 17.4215C18.278 17.4183 18.3622 17.3893 18.4329 17.3382C18.5036 17.2871 18.5575 17.2162 18.588 17.1345C21.5052 17.0255 22.0992 14.4655 20.0544 13.7114C16.1567 12.2608 15.2365 9.76011 13.4014 6.3291C13.0265 5.62134 11.5536 6.56409 11.5149 7.8914C9.90936 8.72148 6.79983 5.92494 7.41267 5.15645C7.66343 4.89039 7.80312 4.53863 7.80321 4.17303C7.80331 3.80743 7.66379 3.45559 7.41317 3.18941C7.16255 2.92323 6.81975 2.76279 6.45481 2.74088C6.08987 2.71898 5.73033 2.83725 5.44967 3.07154C3.92677 4.53767 2.68372 6.26898 1.78138 8.18066C1.64192 8.56994 2.26477 9.39338 2.4992 9.67396ZM6.04521 3.74033C6.48018 3.36791 7.31719 3.85692 6.69855 4.60409C5.26843 6.42705 10.0117 10.2148 12.2352 8.50159C12.6335 8.18034 12.1739 7.51089 12.7852 7.10732C13.1906 7.85541 13.536 8.52268 13.8657 9.1013L13.1861 9.22136C13.0685 9.24213 12.964 9.30874 12.8956 9.40655C12.8271 9.50436 12.8003 9.62535 12.8211 9.74291C12.8419 9.86047 12.9085 9.96496 13.0063 10.0334C13.1041 10.1018 13.2251 10.1286 13.3427 10.1079L14.3582 9.92847C14.4898 10.1561 14.6203 10.3829 14.7479 10.5879L14.1303 10.697C14.0128 10.7178 13.9083 10.7844 13.8398 10.8822C13.7714 10.98 13.7446 11.101 13.7654 11.2186C13.7861 11.3361 13.8528 11.4406 13.9506 11.509C14.0484 11.5775 14.1694 11.6043 14.2869 11.5835L15.2985 11.4048C16.7951 13.6899 19.5252 14.4591 20.2225 14.928C17.6725 15.3104 13.8654 14.89 11.7102 13.3845C9.83699 12.0608 4.22176 8.5002 3.48131 6.87885C4.2152 5.73959 5.07527 4.68676 6.04521 3.74033ZM2.95529 7.76506C4.10245 9.49232 9.14502 12.6574 11.1976 14.0937C13.7173 15.8568 17.1681 16.0659 20.1285 15.8161C18.303 16.8212 12.9343 16.4501 10.8164 14.6384C8.91968 13.3137 3.32931 9.77313 2.68966 8.31985C2.76753 8.13 2.85621 7.94477 2.95529 7.76506Z" fill="black"/>
</svg>
