<svg width="26" height="27" viewBox="0 0 26 27" fill="none" xmlns="http://www.w3.org/2000/svg">
<path d="M12.6027 3.33716C12.6026 3.33716 12.6026 3.33716 12.6027 3.33716C9.20049 3.33716 6.00854 4.85258 3.61472 7.60426C3.35532 7.90244 3.35532 8.34613 3.61472 8.6443L7.9319 13.6068C8.08238 13.7798 8.30043 13.8791 8.52967 13.8791H16.6757C16.905 13.8791 17.123 13.7798 17.2735 13.6068L21.5907 8.6443C21.8501 8.34613 21.8501 7.90238 21.5907 7.60421C19.1968 4.85258 16.0047 3.33721 12.6027 3.33716ZM12.1371 12.2945L12.6026 11.2861L13.0681 12.2945H12.1371ZM16.3148 12.2945H14.8135L13.322 9.0638C13.1925 8.78327 12.9117 8.60363 12.6026 8.60363C12.2936 8.60363 12.0128 8.78327 11.8832 9.0638L10.3918 12.2945H8.89049L5.27529 8.13891C5.72696 7.67515 6.2062 7.25861 6.70831 6.89077L7.39043 7.70901C7.54715 7.897 7.77243 7.99397 7.9994 7.99397C8.17831 7.99397 8.35821 7.93371 8.50632 7.81021C8.84242 7.53 8.88774 7.03042 8.60758 6.69433L8.06601 6.04469C9.23937 5.43234 10.5029 5.06127 11.8103 4.95442V5.93022C11.8103 6.36779 12.165 6.72253 12.6026 6.72253C13.0402 6.72253 13.3949 6.36779 13.3949 5.93022V4.95442C14.7023 5.06127 15.9658 5.43234 17.1392 6.04469L16.5976 6.69433C16.3174 7.03042 16.3628 7.53005 16.6988 7.81021C16.8471 7.93371 17.0269 7.99397 17.2058 7.99397C17.4328 7.99397 17.6581 7.89694 17.8148 7.70901L18.4969 6.89077C18.999 7.25861 19.4783 7.67515 19.9299 8.13891L16.3148 12.2945Z" fill="#84C1C2"/>
<path d="M23.714 1.91443C22.6171 0.697759 21.0487 0 19.4107 0H5.79349C4.15553 0 2.58708 0.697759 1.49031 1.91437C0.393547 3.13099 -0.138356 4.7632 0.0308809 6.39245L1.6325 21.8052C1.94024 24.7667 4.41763 27 7.39512 27H17.8091C20.7865 27 23.2639 24.7667 23.5717 21.8052L25.1733 6.3925C25.3426 4.76325 24.8106 3.13104 23.714 1.91443ZM23.5971 6.22865L21.9956 21.6414C21.772 23.7929 19.9722 25.4154 17.8091 25.4154H13.3944V20.6632C13.3944 20.2256 13.0397 19.8709 12.6021 19.8709C12.1645 19.8709 11.8098 20.2256 11.8098 20.6632V25.4154H7.39512C5.23201 25.4154 3.43221 23.7929 3.20862 21.6414L1.60705 6.22865C1.48403 5.04499 1.87046 3.85928 2.66726 2.97538C3.46406 2.09153 4.6035 1.58462 5.79349 1.58462H19.4107C20.6007 1.58462 21.7402 2.09153 22.537 2.97543C23.3338 3.85928 23.7201 5.04505 23.5971 6.22865Z" fill="#84C1C2"/>
</svg>
