<svg width="16" height="16" viewBox="0 0 16 16" fill="none" xmlns="http://www.w3.org/2000/svg">
<g clip-path="url(#clip0_39_1257)">
<path d="M12.2906 0H3.70936C1.83986 0 0.381302 1.61634 0.57452 3.47397L1.5838 13.1769C1.75071 14.7812 3.10415 16 4.71868 16H7.53124V12.2337C7.53124 11.975 7.74111 11.7654 7.99999 11.7654C8.25886 11.7654 8.46874 11.975 8.46874 12.2337V16H11.2813C12.8958 16 14.2493 14.7812 14.4161 13.1769L15.4254 3.47397C15.6187 1.61634 14.1601 0 12.2906 0ZM13.3175 5.13075L10.7633 8.06372C10.6743 8.16594 10.5453 8.22466 10.4097 8.22466H5.5903C5.45465 8.22466 5.32568 8.16597 5.23665 8.06372L2.68249 5.13075C2.52902 4.95453 2.52902 4.69228 2.68249 4.51603C4.09874 2.88972 5.98721 1.99409 7.99999 1.99409C10.0128 1.99409 11.9012 2.88975 13.3175 4.51606C13.471 4.69228 13.471 4.95453 13.3175 5.13075Z" fill="#E4774F"/>
<path d="M11.4903 4.09658L11.0836 4.57795C10.9909 4.68905 10.8576 4.74639 10.7234 4.74639C10.6175 4.74639 10.5111 4.7108 10.4234 4.6378C10.2246 4.4722 10.1978 4.17692 10.3635 3.97826L10.6796 3.59211C9.9867 3.23151 9.24067 3.01295 8.46876 2.94992V3.52664C8.46876 3.78526 8.25888 3.99492 8.00001 3.99492C7.74113 3.99492 7.53126 3.78526 7.53126 3.52664V2.94992C6.75935 3.01295 6.01332 3.23151 5.32035 3.59208L5.63645 3.97823C5.80223 4.17689 5.77538 4.47217 5.57657 4.63776C5.48892 4.71073 5.38248 4.74636 5.27663 4.74636C5.14235 4.74636 5.00907 4.68901 4.91635 4.57792L4.50813 4.09767C4.21279 4.31426 3.93082 4.55936 3.66498 4.83201L5.80379 7.28808H7.05207L7.78823 5.69514C7.8716 5.5147 8.12832 5.5147 8.2117 5.69514L8.94785 7.28808H10.1961L12.3349 4.83201C12.0688 4.55892 11.7863 4.31345 11.4903 4.09658Z" fill="#E4774F"/>
</g>
<defs>
<clipPath id="clip0_39_1257">
<rect width="16" height="16" fill="white"/>
</clipPath>
</defs>
</svg>
